<svg xmlns="http://www.w3.org/2000/svg" viewBox="0 0 24 24" fill="currentColor"><path d="M23.922 12.397a5.594 5.594 0 00-1.07-3.042 4.624 4.624 0 00-3.108-2.042 6.252 6.252 0 00-5.57-4.303 6.532 6.532 0 00-2.172.36 6.252 6.252 0 00-5.57 4.302 4.624 4.624 0 00-3.109 2.043A5.594 5.594 0 002.253 12.8a5.26 5.26 0 00.585 4.124 5.028 5.028 0 004.44 2.477h9.473a5.028 5.028 0 004.44-2.477 5.26 5.26 0 00.731-4.527zM12 5.01a4.252 4.252 0 013.91 2.584l.218.51.549-.087a2.634 2.634 0 012.407 1.1 3.594 3.594 0 01.556 2.82 3.26 3.26 0 01-.77 1.564l-.01.01v.002l-4.16 4.285a.75.75 0 01-1.08-.002l-.544-.563a.25.25 0 01.002-.353l3.148-3.203a.5.5 0 00-.357-.852H12.25a.25.25 0 01-.25-.25v-.75a.25.25 0 01.25-.25h4.135a.25.25 0 00.178-.427l-1.416-1.44a.25.25 0 00-.178-.074H12.25a.25.25 0 01-.25-.25v-.75a.25.25 0 01.25-.25h1.505a.25.25 0 00.175-.428L12.27 7.093A4.253 4.253 0 0112 5.01zm-4.7 12.788a.75.75 0 01-.54-.228l-2.42-2.492-.01-.01A3.26 3.26 0 013.56 13.5a3.594 3.594 0 01.556-2.82 2.634 2.634 0 012.406-1.1l.55.088.217-.511A4.252 4.252 0 0111.73 7.09l-1.66 1.618a.25.25 0 00.175.427H11.75a.25.25 0 01.25.25v.75a.25.25 0 01-.25.25H9.03a.25.25 0 00-.178.074l-1.416 1.44a.25.25 0 00.178.427H11.75a.25.25 0 01.25.25v.75a.25.25 0 01-.25.25H8.131a.5.5 0 00-.357.852l3.148 3.203a.25.25 0 01.002.353l-.544.563a.75.75 0 01-.54.23h-.54z"/></svg>
