<svg xmlns="http://www.w3.org/2000/svg" viewBox="0 0 24 24" fill="currentColor"><path d="M12 2C6.477 2 2 6.477 2 12s4.477 10 10 10 10-4.477 10-10S17.523 2 12 2zm3.8 14.4c-.5.5-1.2.8-2 .8H9c-.8 0-1.5-.3-2-.8s-.8-1.2-.8-2v-1.6h2v1.6c0 .2.1.4.2.6.2.2.4.2.6.2h4.8c.2 0 .4-.1.6-.2.2-.2.2-.4.2-.6V12c0-.2-.1-.4-.2-.6-.2-.2-.4-.2-.6-.2H9c-.8 0-1.5-.3-2-.8S6.2 9.2 6.2 8.4V7.6c0-.8.3-1.5.8-2s1.2-.8 2-.8h4.8c.8 0 1.5.3 2 .8s.8 1.2.8 2v.8h-2v-.8c0-.2-.1-.4-.2-.6-.2-.2-.4-.2-.6-.2H9c-.2 0-.4.1-.6.2-.1.2-.2.4-.2.6v.8c0 .2.1.4.2.6.2.2.4.2.6.2h4.8c.8 0 1.5.3 2 .8s.8 1.2.8 2v2.4c0 .8-.3 1.5-.8 2z"/></svg>
