<svg xmlns="http://www.w3.org/2000/svg" viewBox="0 0 24 24" fill="currentColor"><path d="M6.915 4.03c-1.968 0-3.49 1.372-4.51 2.942C1.277 8.58.5 10.596.5 12.588c0 1.604.506 2.895 1.478 3.674.901.723 2.076 1.01 3.236.91.855-.074 1.733-.358 2.575-.904.535-.347 1.058-.793 1.56-1.347.508.557 1.025 1 1.55 1.342.84.547 1.719.833 2.575.908 1.159.1 2.334-.186 3.236-.91.972-.78 1.478-2.071 1.478-3.674 0-1.992-.778-4.008-1.905-5.616-1.02-1.57-2.542-2.942-4.51-2.942-.986 0-1.822.369-2.49.992A4.457 4.457 0 0 0 8.8 6.36a4.457 4.457 0 0 0-.393-.338c-.669-.623-1.505-.992-2.492-.992zM4.8 7.782c.472-.702 1.152-1.252 2.115-1.252.608 0 1.108.265 1.52.7.372.393.67.9.907 1.45-1.1 1.642-2.026 3.536-2.526 5.328-.63.055-1.158-.084-1.555-.403-.494-.397-.831-1.084-.831-2.017 0-1.535.598-3.099 1.37-3.806zm9.285-1.252c.963 0 1.643.55 2.115 1.252.772.707 1.37 2.27 1.37 3.806 0 .933-.337 1.62-.83 2.017-.398.32-.926.458-1.556.403-.5-1.792-1.426-3.686-2.526-5.327.238-.552.535-1.058.908-1.45.411-.436.911-.701 1.52-.701zM12 10.07c.944 1.467 1.7 3.178 2.005 4.812-.33.12-.675.198-1.01.237-.453.052-.886.026-1.143-.102a.186.186 0 0 1-.065-.054.186.186 0 0 1-.065.054c-.257.128-.69.154-1.143.102a4.604 4.604 0 0 1-1.01-.237c.304-1.634 1.061-3.345 2.005-4.812h.426z"/></svg>
