<svg xmlns="http://www.w3.org/2000/svg" viewBox="0 0 24 24" fill="currentColor"><rect x="1" y="3" width="4" height="4"/><rect x="19" y="3" width="4" height="4"/><rect x="1" y="7" width="4" height="4"/><rect x="7" y="7" width="4" height="4"/><rect x="13" y="7" width="4" height="4"/><rect x="19" y="7" width="4" height="4"/><rect x="1" y="11" width="4" height="4"/><rect x="7" y="11" width="10" height="4"/><rect x="19" y="11" width="4" height="4"/><rect x="1" y="15" width="4" height="4"/><rect x="7" y="15" width="4" height="4"/><rect x="13" y="15" width="4" height="4"/><rect x="19" y="15" width="4" height="4"/><rect x="1" y="19" width="4" height="4" opacity="0.55"/><rect x="19" y="19" width="4" height="4" opacity="0.55"/></svg>
